<?xml version="1.0" standalone="no"?>
<!DOCTYPE svg PUBLIC "-//W3C//DTD SVG 20010904//EN"
 "http://www.w3.org/TR/2001/REC-SVG-20010904/DTD/svg10.dtd">
<svg version="1.0" xmlns="http://www.w3.org/2000/svg"
 width="499.000000pt" height="500.000000pt" viewBox="0 0 499.000000 500.000000"
 preserveAspectRatio="xMidYMid meet">

<g transform="translate(0.000000,500.000000) scale(0.100000,-0.100000)"
fill="#000000" stroke="none">
<path d="M2323 4252 c-8 -5 -9 -26 -4 -70 4 -35 5 -65 1 -67 -3 -2 -29 -7 -57
-11 -58 -7 -57 -9 -68 83 l-7 52 -31 -6 c-18 -3 -33 -7 -35 -8 -3 -2 24 -242
34 -302 4 -28 9 -33 34 -33 16 0 31 4 34 9 3 5 2 37 -2 70 -5 34 -6 63 -3 65
3 2 31 7 62 10 l56 7 7 -72 7 -71 31 6 c18 3 34 8 36 11 4 4 -24 265 -34 313
-4 22 -36 30 -61 14z"/>
<path d="M2562 4233 c-60 -29 -102 -101 -102 -173 0 -32 32 -100 56 -122 50
-44 152 -53 208 -18 55 33 81 84 81 157 0 53 -4 66 -31 100 -55 69 -140 92
-212 56z m139 -82 c22 -22 29 -39 29 -68 0 -43 -28 -96 -61 -114 -34 -18 -95
4 -114 41 -57 110 62 225 146 141z"/>
<path d="M1936 4180 c-52 -10 -96 -58 -96 -105 0 -53 33 -84 104 -95 87 -14
111 -43 61 -76 -19 -12 -37 -15 -69 -11 -44 6 -44 6 -48 -28 -4 -35 8 -45 57
-45 73 0 165 63 165 114 0 61 -50 106 -118 106 -47 0 -82 17 -82 39 0 25 28
41 69 41 24 0 32 5 37 25 4 14 5 27 3 29 -11 10 -49 13 -83 6z"/>
<path d="M2902 4138 c-48 -130 -92 -256 -92 -265 0 -5 37 -23 82 -39 45 -16
85 -30 88 -32 3 -1 11 11 17 27 10 29 10 29 -41 49 -46 18 -51 23 -49 47 3 44
16 49 68 30 48 -19 58 -16 69 21 5 17 -1 23 -41 35 -45 14 -48 18 -46 48 0 18
4 35 7 39 4 3 30 -2 59 -11 49 -16 53 -16 65 0 22 30 13 38 -70 68 -45 17 -85
31 -89 33 -4 2 -16 -21 -27 -50z"/>
<path d="M3181 4014 c-42 -35 -41 -77 2 -154 31 -57 31 -60 14 -77 -16 -16
-20 -16 -45 -3 -14 9 -36 29 -47 47 -20 29 -23 30 -48 16 -35 -18 -34 -34 3
-77 52 -58 140 -85 181 -53 56 43 58 89 7 169 -16 26 -28 55 -26 65 6 31 46
28 77 -6 27 -29 28 -29 55 -12 l27 18 -27 32 c-54 65 -122 79 -173 35z"/>
<path d="M1500 3959 c-47 -32 -87 -64 -89 -70 -1 -5 5 -19 14 -29 17 -19 18
-19 43 0 13 11 30 20 36 20 8 -1 104 -130 157 -212 7 -11 59 18 59 33 0 5 -34
58 -75 118 l-75 109 31 25 c27 21 30 27 20 46 -7 11 -17 21 -24 21 -7 -1 -50
-28 -97 -61z"/>
<path d="M3520 3757 c-30 -29 -86 -80 -124 -115 l-70 -63 27 -27 27 -26 45 44
c24 24 47 41 50 38 4 -3 0 -41 -8 -83 l-15 -78 44 -56 c40 -51 46 -55 81 -53
37 3 39 1 69 -55 l32 -58 -23 -30 c-23 -30 -23 -31 -6 -64 l18 -34 117 146
c121 152 119 148 88 195 -6 9 -38 8 -152 -8 -79 -11 -157 -20 -173 -20 -29 0
-29 0 -23 48 14 101 15 102 43 91 63 -24 142 46 128 112 -6 25 -94 138 -114
146 -3 2 -31 -21 -61 -50z m100 -98 c0 -48 -58 -63 -91 -23 -10 12 -6 21 21
49 32 33 35 34 52 18 10 -9 18 -29 18 -44z m170 -296 c-1 -5 -16 -25 -34 -47
l-33 -38 -21 35 c-12 19 -22 37 -22 40 0 5 36 12 88 15 12 1 22 -1 22 -5z"/>
<path d="M1295 3776 c-16 -8 -52 -37 -80 -65 l-49 -51 119 -114 c97 -93 116
-115 97 -115 -13 -1 -93 10 -179 24 -125 20 -158 23 -165 13 -30 -45 -31 -44
67 -172 52 -69 95 -129 95 -134 0 -5 -64 4 -142 19 -79 16 -146 28 -150 29 -6
0 -28 -55 -28 -71 0 -4 38 -36 85 -70 98 -73 98 -72 -39 -83 -50 -3 -92 -8
-94 -11 -3 -2 -5 -20 -6 -40 l-1 -36 154 -60 c85 -32 156 -58 157 -56 2 2 7
18 10 35 6 28 3 33 -22 42 -16 6 -60 23 -99 38 l-70 27 50 6 c28 4 78 8 112 8
53 1 63 4 68 22 8 23 7 23 -97 95 -38 26 -68 50 -68 54 0 4 39 -1 88 -11 48
-10 92 -18 98 -19 7 0 24 25 39 56 l27 56 -22 30 -22 29 34 57 c34 56 35 57
76 54 23 -2 42 1 42 6 0 5 19 30 41 56 l42 47 -49 50 -49 51 91 -7 c91 -7 91
-7 117 21 15 15 25 29 24 30 -5 6 -65 12 -114 13 l-53 1 0 49 c0 43 -4 52 -35
80 -39 34 -55 37 -100 17z m59 -82 c21 -20 20 -37 -3 -65 l-20 -24 -36 35 -36
35 22 17 c26 22 53 23 73 2z m-137 -313 c9 -5 7 -16 -9 -41 l-21 -35 -33 39
c-19 22 -34 43 -34 48 0 9 76 0 97 -11z"/>
<path d="M2255 3734 c-263 -46 -481 -160 -676 -354 -253 -251 -372 -536 -373
-890 -1 -170 13 -259 64 -412 168 -504 661 -858 1195 -858 514 0 983 317 1174
795 73 182 86 253 85 475 -1 177 -3 204 -26 290 -107 398 -343 686 -701 855
-215 102 -506 141 -742 99z m411 -69 c174 -31 309 -84 454 -180 261 -173 427
-408 511 -725 30 -111 37 -355 15 -475 -110 -585 -597 -995 -1182 -995 -682 0
-1226 575 -1191 1260 22 428 273 812 657 1005 224 112 492 152 736 110z"/>
<path d="M2051 3244 c-126 -76 -174 -115 -227 -188 -29 -41 -54 -77 -54 -80 0
-4 -22 -35 -48 -69 -27 -34 -51 -70 -55 -79 -7 -20 21 -51 65 -70 l28 -13 0
-332 0 -332 63 -29 c34 -16 78 -36 97 -44 19 -9 79 -37 133 -62 54 -25 100
-46 102 -46 3 0 42 -18 87 -39 185 -87 224 -104 244 -103 22 2 69 21 248 106
65 31 120 56 121 56 2 0 50 22 107 49 57 27 147 70 201 94 l97 46 0 299 0 300
60 28 c33 15 60 30 60 32 0 6 -26 42 -168 224 -78 100 -130 158 -165 183 -29
19 -71 48 -94 65 -24 18 -48 27 -57 24 -34 -13 -15 -43 64 -101 44 -32 80 -62
80 -66 0 -5 -35 -24 -77 -43 -43 -20 -100 -46 -128 -59 -116 -55 -302 -138
-330 -147 -28 -9 -53 1 -293 118 -144 71 -262 132 -262 136 0 3 38 31 85 62
84 55 97 73 72 94 -9 8 -24 4 -56 -14z m108 -316 c135 -67 248 -123 251 -126
9 -7 -141 -272 -155 -272 -5 0 -48 23 -94 50 -46 28 -86 50 -87 50 -2 0 -33
18 -69 40 -36 22 -67 40 -70 40 -3 0 -26 13 -52 29 -27 16 -68 40 -93 54 -25
14 -45 30 -45 36 0 13 152 221 162 221 4 0 117 -55 252 -122z m1061 -40 c54
-71 67 -95 57 -103 -6 -6 -46 -27 -87 -45 -41 -18 -115 -52 -165 -76 -49 -23
-139 -65 -200 -93 l-109 -50 -51 77 c-89 135 -116 184 -112 197 5 11 61 38
337 160 52 23 120 54 150 68 l54 26 28 -34 c16 -18 60 -75 98 -127z m-700
-165 c0 -18 161 -258 177 -264 10 -3 50 11 95 33 43 21 81 38 83 38 3 0 53 23
112 51 132 63 192 89 204 89 5 0 9 -110 9 -264 l0 -264 -52 -22 c-29 -12 -104
-47 -166 -76 -62 -30 -115 -54 -117 -54 -2 0 -50 -22 -107 -49 -57 -27 -138
-65 -180 -84 l-78 -36 0 455 c0 296 3 454 10 454 6 0 10 -3 10 -7z m-610 -68
c44 -25 102 -57 128 -72 26 -14 64 -37 84 -50 21 -12 40 -23 43 -23 3 0 31
-16 63 -36 31 -20 58 -33 59 -28 6 17 122 219 137 239 14 18 15 -23 16 -412 0
-238 -2 -433 -4 -433 -5 0 -96 41 -201 89 -48 23 -88 41 -90 41 -2 0 -50 22
-107 48 -57 26 -129 59 -160 73 l-58 24 0 293 c0 160 2 292 5 292 3 0 42 -20
85 -45z"/>
<path d="M3834 3160 c-110 -25 -165 -154 -113 -265 29 -62 41 -70 67 -42 l22
23 -20 39 c-25 49 -25 81 0 122 27 44 84 62 128 39 40 -21 61 -52 70 -107 6
-38 11 -44 35 -47 34 -4 42 13 33 72 -17 110 -122 189 -222 166z"/>
<path d="M3940 2820 c-58 -4 -124 -8 -147 -9 -42 -1 -43 -2 -43 -37 l0 -35 65
2 c36 1 67 0 70 -2 2 -3 -25 -34 -60 -69 -63 -62 -65 -66 -65 -114 l0 -50 53
49 c28 28 68 65 87 82 l35 32 79 -60 c44 -32 81 -59 83 -59 2 0 3 18 3 39 0
37 -4 42 -70 91 -38 29 -70 56 -70 61 0 5 29 9 65 9 l65 0 0 40 c0 35 -3 40
-22 38 -13 -1 -70 -5 -128 -8z"/>
<path d="M1003 2770 c-12 -5 -34 -30 -49 -57 -49 -86 -73 -102 -94 -63 -7 14
-6 30 3 59 14 38 13 40 -10 50 -33 15 -32 15 -49 -24 -18 -44 -18 -88 1 -125
18 -35 43 -50 83 -50 37 0 63 21 105 85 36 56 66 66 80 25 8 -22 -4 -66 -30
-110 -2 -3 10 -13 26 -23 28 -17 29 -16 47 11 23 35 31 132 13 173 -8 20 -25
37 -45 45 -38 16 -50 16 -81 4z"/>
<path d="M1050 2341 c-47 -44 -89 -76 -95 -72 -5 5 -40 31 -76 59 -37 29 -69
52 -73 52 -3 0 -6 -17 -6 -38 0 -36 4 -41 75 -93 41 -29 75 -57 75 -61 0 -5
-31 -8 -70 -8 l-70 0 0 -37 0 -36 172 6 c94 4 172 8 173 9 2 2 0 18 -2 36 l-5
32 -71 0 -71 0 70 73 c68 71 70 73 64 115 l-5 42 -85 -79z"/>
<path d="M3780 2371 c-30 -59 -28 -140 5 -179 56 -67 125 -48 176 48 33 62 55
74 79 45 10 -13 11 -24 1 -56 -11 -36 -10 -42 6 -55 27 -20 33 -17 49 21 36
88 -4 175 -81 175 -41 0 -62 -16 -99 -74 -39 -61 -48 -69 -70 -60 -32 12 -27
70 11 134 2 3 -10 13 -27 23 l-29 18 -21 -40z"/>
<path d="M3756 2128 c-11 -41 -7 -46 62 -72 140 -53 135 -49 72 -57 -30 -4
-81 -7 -112 -8 -48 -1 -58 -4 -63 -22 -4 -11 -5 -22 -3 -23 1 -1 40 -29 86
-61 45 -32 82 -61 82 -65 0 -4 -37 1 -82 11 -46 10 -91 19 -100 19 -11 0 -26
-20 -42 -56 l-26 -56 21 -29 21 -30 -34 -57 c-34 -56 -35 -57 -76 -54 -23 2
-42 -1 -42 -6 0 -5 -19 -30 -41 -56 l-42 -47 49 -50 49 -50 -75 6 c-41 4 -81
8 -88 11 -7 2 -27 -11 -45 -29 l-31 -32 87 -9 87 -9 0 -43 c0 -60 40 -106 92
-106 46 0 62 10 123 72 l50 52 -120 113 c-66 63 -118 116 -115 118 4 4 182
-22 325 -48 26 -4 33 -1 48 25 l18 30 -91 120 c-101 134 -111 150 -83 145 10
-3 68 -14 128 -25 61 -11 120 -23 132 -25 17 -4 23 2 32 27 6 17 11 34 11 39
0 4 -38 36 -85 70 -99 73 -99 72 49 84 l84 7 10 38 9 38 -141 55 c-192 74
-182 72 -190 45z m-2 -549 c15 -22 26 -42 24 -45 -3 -2 -28 1 -57 7 -50 10
-52 12 -38 32 7 12 17 28 21 35 11 19 19 15 50 -29z m-144 -289 l35 -31 -24
-19 c-28 -24 -49 -25 -73 -3 -22 20 -23 32 -2 61 20 28 22 28 64 -8z"/>
<path d="M1111 2076 l-22 -23 22 -37 c16 -28 20 -47 16 -77 -6 -48 -21 -68
-65 -86 -70 -29 -136 20 -148 108 -6 46 -9 49 -35 49 -38 0 -46 -32 -25 -103
47 -160 255 -189 325 -44 26 53 27 119 2 172 -27 60 -43 70 -70 41z"/>
<path d="M1116 1687 l-116 -146 18 -30 c13 -25 22 -30 42 -27 14 3 66 10 115
17 50 6 115 15 145 19 30 4 56 7 58 5 2 -2 0 -34 -5 -72 l-8 -68 -37 3 c-74 6
-134 -54 -121 -121 3 -16 30 -55 61 -88 l55 -59 51 47 c28 27 84 78 124 116
l73 67 -18 25 c-10 13 -22 25 -28 25 -5 0 -28 -19 -52 -42 -23 -23 -45 -39
-48 -37 -4 5 6 81 20 146 4 15 -7 35 -35 68 -22 25 -40 50 -40 54 0 4 -19 7
-42 7 -40 -1 -42 1 -73 54 l-33 54 23 31 c23 29 23 31 6 64 l-18 34 -117 -146z
m87 -72 c9 -19 13 -36 9 -38 -13 -8 -102 -18 -102 -12 0 9 62 85 70 85 3 0 14
-16 23 -35z m162 -315 c18 -20 18 -21 -13 -53 -26 -26 -35 -30 -50 -21 -21 13
-28 60 -11 80 17 20 53 17 74 -6z"/>
<path d="M3202 1254 c-12 -8 -22 -19 -22 -23 0 -4 34 -57 76 -117 l76 -108
-32 -27 c-27 -23 -30 -30 -21 -48 7 -12 16 -21 22 -21 17 0 189 122 189 134 0
6 -7 19 -15 30 -13 18 -15 18 -44 -4 -17 -11 -35 -19 -41 -15 -5 3 -42 53 -82
110 -39 58 -74 105 -78 105 -3 0 -16 -7 -28 -16z"/>
<path d="M1657 1219 c-9 -5 -24 -24 -33 -40 -18 -36 -10 -67 37 -141 26 -39
29 -51 19 -63 -20 -24 -49 -18 -81 16 -27 29 -29 30 -54 13 l-26 -17 24 -30
c52 -67 133 -83 183 -36 35 33 32 86 -8 150 -34 56 -31 81 11 87 23 4 81 -49
81 -74 0 -11 6 -11 34 3 33 15 34 17 21 42 -41 78 -148 125 -208 90z"/>
<path d="M1906 1105 c-9 -35 -4 -40 50 -55 44 -13 46 -14 40 -44 -9 -45 -18
-49 -74 -28 l-51 20 -10 -29 c-11 -32 -7 -37 62 -59 30 -9 37 -16 32 -29 -4
-9 -10 -24 -12 -33 -7 -22 -13 -22 -74 -1 -53 19 -55 19 -64 -17 -5 -24 -1
-27 84 -57 l89 -31 56 149 c31 82 56 156 56 163 0 11 -35 27 -166 73 -6 2 -14
-8 -18 -22z"/>
<path d="M2874 1092 c-44 -21 -84 -65 -84 -92 0 -9 5 -31 11 -48 11 -33 66
-62 117 -62 42 0 70 -10 77 -28 9 -24 -30 -52 -70 -52 -33 0 -45 -13 -45 -47
0 -13 11 -15 60 -11 49 3 65 9 90 33 54 52 34 145 -35 160 -11 2 -40 8 -64 12
-59 11 -75 37 -41 65 20 16 34 19 71 15 46 -6 47 -5 52 26 2 18 3 34 1 36 -13
14 -104 10 -140 -7z"/>
<path d="M2213 1029 c-66 -19 -123 -102 -123 -179 1 -34 32 -101 61 -126 53
-47 132 -56 194 -21 137 78 117 285 -33 327 -43 12 -56 12 -99 -1z m96 -73
c63 -33 68 -131 10 -185 -31 -29 -81 -27 -116 3 -25 22 -28 31 -27 81 0 52 3
61 32 86 36 32 60 36 101 15z"/>
<path d="M2676 983 c3 -32 7 -64 10 -71 4 -15 -4 -18 -69 -27 -54 -7 -52 -9
-62 78 -6 50 -9 57 -28 57 -49 0 -50 -5 -29 -179 11 -89 22 -164 25 -167 3 -3
19 -3 36 1 l30 6 -6 68 -6 68 39 6 c76 13 84 10 84 -25 0 -18 3 -49 6 -68 6
-34 8 -36 41 -32 l35 4 -6 52 c-3 28 -11 94 -16 146 -15 142 -15 140 -55 140
l-35 0 6 -57z"/>
</g>
</svg>
